<svg width="288" height="51" viewBox="0 0 288 51" fill="none" xmlns="http://www.w3.org/2000/svg">
<path d="M35.9608 6.16H14.3308L11.5308 22.05H32.3208L31.2008 28.21H10.4108L6.77082 49H0.26082L8.87082 -3.33786e-06H37.0808L35.9608 6.16ZM47.0646 19.11C50.0046 15.1433 53.9946 13.23 59.0346 13.37L57.9146 19.74C54.9279 19.6467 52.1979 20.4633 49.7246 22.19C47.2979 23.87 45.7579 26.6233 45.1046 30.45V30.38L41.8146 49H35.7246L41.8846 14H47.9746L47.0646 19.11ZM74.3329 49.91C69.1529 49.91 64.9995 48.1133 61.8729 44.52C58.7462 40.9267 57.6729 36.3767 58.6529 30.87C59.6329 25.4567 62.1995 21.14 66.3529 17.92C70.5062 14.7 75.1262 13.09 80.2129 13.09C85.2062 13.09 89.2195 14.8867 92.2529 18.48C95.2862 22.0733 96.3362 26.5767 95.4029 31.99C94.4695 37.4967 91.9729 41.86 87.9129 45.08C83.8529 48.3 79.3262 49.91 74.3329 49.91ZM74.8229 43.96C78.2295 43.96 81.3329 42.84 84.1329 40.6C86.9795 38.36 88.7295 35.28 89.3829 31.36C90.0362 27.58 89.3362 24.5933 87.2829 22.4C85.2762 20.16 82.5929 19.04 79.2329 19.04C75.9195 19.0867 72.8629 20.2067 70.0629 22.4C67.2629 24.5933 65.4895 27.6267 64.7429 31.5C64.0895 35.42 64.7662 38.5 66.7729 40.74C68.8262 42.9333 71.5095 44.0067 74.8229 43.96ZM123.021 13.09C127.127 13.09 130.231 14.3967 132.331 17.01C134.477 19.6233 135.177 23.1233 134.431 27.51L130.651 49H124.561L128.271 27.86C128.784 24.9667 128.434 22.75 127.221 21.21C126.007 19.67 124.001 18.9 121.201 18.9C118.214 18.9 115.601 19.8567 113.361 21.77C111.121 23.6367 109.674 26.53 109.021 30.45V30.38L105.731 49H99.6406L105.801 14H111.891L111.051 18.62C114.084 14.9333 118.074 13.09 123.021 13.09ZM154.062 19.88L150.702 38.85C150.376 40.53 150.516 41.7433 151.122 42.49C151.729 43.2367 152.709 43.6333 154.062 43.68C155.462 43.68 157.189 43.6333 159.242 43.54L158.262 49C153.082 49.7 149.326 49.2567 146.992 47.67C144.659 46.0367 143.866 43.0967 144.612 38.85L147.902 19.88H140.972L142.092 14H148.952L150.352 6.02L156.792 4.2L155.042 14H164.422L163.372 19.88H154.062ZM185.743 13.09C191.017 13.09 195.053 14.91 197.853 18.55C200.7 22.1433 201.633 26.4833 200.653 31.57C200.56 32.3167 200.327 33.2267 199.953 34.3H170.693C170.693 37.4267 171.65 39.8533 173.563 41.58C175.523 43.3067 178.113 44.17 181.333 44.17C186.047 44.17 189.757 42.4433 192.463 38.99L197.013 42.28C195.24 44.7067 192.883 46.5967 189.943 47.95C187.05 49.2567 183.947 49.91 180.633 49.91C175.127 49.91 170.903 48.0667 167.963 44.38C165.023 40.6933 164.02 36.1667 164.953 30.8C165.84 25.7133 168.243 21.49 172.163 18.13C176.083 14.77 180.61 13.09 185.743 13.09ZM171.603 28.91H194.913C195.053 25.5967 194.237 23.1 192.463 21.42C190.69 19.6933 188.333 18.83 185.393 18.83C182.127 18.83 179.257 19.74 176.783 21.56C174.357 23.3333 172.63 25.7833 171.603 28.91ZM227.884 13.09C231.991 13.09 235.094 14.3967 237.194 17.01C239.341 19.6233 240.041 23.1233 239.294 27.51L235.514 49H229.424L233.134 27.86C233.647 24.9667 233.297 22.75 232.084 21.21C230.871 19.67 228.864 18.9 226.064 18.9C223.077 18.9 220.464 19.8567 218.224 21.77C215.984 23.6367 214.537 26.53 213.884 30.45V30.38L210.594 49H204.504L210.664 14H216.754L215.914 18.62C218.947 14.9333 222.937 13.09 227.884 13.09ZM281.746 -3.33786e-06H287.836L279.226 49H273.136L274.046 43.96C270.359 47.9267 265.669 49.91 259.976 49.91C254.982 49.91 251.039 47.9967 248.146 44.17C245.299 40.3433 244.342 35.8633 245.276 30.73C246.209 25.3633 248.566 21.0933 252.346 17.92C256.126 14.7 260.396 13.09 265.156 13.09C268.049 13.09 270.639 13.7433 272.926 15.05C275.212 16.3567 276.939 18.2 278.106 20.58L281.746 -3.33786e-06ZM253.326 40.32C255.332 42.7933 258.109 44.03 261.656 44.03C265.202 44.03 268.352 42.8867 271.106 40.6C273.859 38.2667 275.539 35.3267 276.146 31.78C276.846 27.8133 276.122 24.6867 273.976 22.4C271.876 20.1133 269.099 18.97 265.646 18.97C262.286 18.97 259.229 20.0667 256.476 22.26C253.722 24.4067 252.019 27.3933 251.366 31.22C250.712 34.8133 251.366 37.8467 253.326 40.32Z" fill="#7BCACC"/>
</svg>
