<svg width="658" height="115" viewBox="0 0 658 115" fill="none" xmlns="http://www.w3.org/2000/svg">
<path d="M81.9819 14.08H32.5419L26.1419 50.4H73.6619L71.1019 64.48H23.5819L15.2619 112H0.381875L20.0619 -7.62939e-06H84.5419L81.9819 14.08ZM107.362 43.68C114.082 34.6133 123.202 30.24 134.722 30.56L132.162 45.12C125.335 44.9067 119.095 46.7733 113.442 50.72C107.895 54.56 104.375 60.8533 102.882 69.6V69.44L95.3619 112H81.4419L95.5219 32H109.442L107.362 43.68ZM169.689 114.08C157.849 114.08 148.356 109.973 141.209 101.76C134.063 93.5467 131.609 83.1467 133.849 70.56C136.089 58.1867 141.956 48.32 151.449 40.96C160.943 33.6 171.503 29.92 183.129 29.92C194.543 29.92 203.716 34.0267 210.649 42.24C217.583 50.4533 219.983 60.7467 217.849 73.12C215.716 85.7067 210.009 95.68 200.729 103.04C191.449 110.4 181.103 114.08 169.689 114.08ZM170.809 100.48C178.596 100.48 185.689 97.92 192.089 92.8C198.596 87.68 202.596 80.64 204.089 71.68C205.583 63.04 203.983 56.2133 199.289 51.2C194.703 46.08 188.569 43.52 180.889 43.52C173.316 43.6267 166.329 46.1867 159.929 51.2C153.529 56.2133 149.476 63.1467 147.769 72C146.276 80.96 147.823 88 152.409 93.12C157.103 98.1333 163.236 100.587 170.809 100.48ZM280.976 29.92C290.362 29.92 297.456 32.9067 302.256 38.88C307.162 44.8533 308.762 52.8533 307.056 62.88L298.416 112H284.496L292.976 63.68C294.149 57.0667 293.349 52 290.576 48.48C287.802 44.96 283.216 43.2 276.816 43.2C269.989 43.2 264.016 45.3867 258.896 49.76C253.776 54.0267 250.469 60.64 248.976 69.6V69.44L241.456 112H227.536L241.616 32H255.536L253.616 42.56C260.549 34.1333 269.669 29.92 280.976 29.92ZM351.928 45.44L344.248 88.8C343.501 92.64 343.821 95.4133 345.208 97.12C346.595 98.8267 348.835 99.7333 351.928 99.84C355.128 99.84 359.075 99.7333 363.768 99.52L361.528 112C349.688 113.6 341.101 112.587 335.768 108.96C330.435 105.227 328.621 98.5067 330.328 88.8L337.848 45.44H322.008L324.568 32H340.248L343.448 13.76L358.168 9.59999L354.168 32H375.608L373.208 45.44H351.928ZM424.342 29.92C436.395 29.92 445.622 34.08 452.022 42.4C458.529 50.6133 460.662 60.5333 458.422 72.16C458.209 73.8667 457.675 75.9467 456.822 78.4H389.942C389.942 85.5467 392.129 91.0933 396.502 95.04C400.982 98.9867 406.902 100.96 414.262 100.96C425.035 100.96 433.515 97.0133 439.702 89.12L450.102 96.64C446.049 102.187 440.662 106.507 433.942 109.6C427.329 112.587 420.235 114.08 412.662 114.08C400.075 114.08 390.422 109.867 383.702 101.44C376.982 93.0133 374.689 82.6667 376.822 70.4C378.849 58.7733 384.342 49.12 393.302 41.44C402.262 33.76 412.609 29.92 424.342 29.92ZM392.022 66.08H445.302C445.622 58.5067 443.755 52.8 439.702 48.96C435.649 45.0133 430.262 43.04 423.542 43.04C416.075 43.04 409.515 45.12 403.862 49.28C398.315 53.3333 394.369 58.9333 392.022 66.08ZM520.663 29.92C530.05 29.92 537.143 32.9067 541.943 38.88C546.85 44.8533 548.45 52.8533 546.743 62.88L538.103 112H524.183L532.663 63.68C533.836 57.0667 533.036 52 530.263 48.48C527.49 44.96 522.903 43.2 516.503 43.2C509.676 43.2 503.703 45.3867 498.583 49.76C493.463 54.0267 490.156 60.64 488.663 69.6V69.44L481.143 112H467.223L481.303 32H495.223L493.303 42.56C500.236 34.1333 509.356 29.92 520.663 29.92ZM643.776 -7.62939e-06H657.696L638.016 112H624.096L626.176 100.48C617.749 109.547 607.029 114.08 594.016 114.08C582.602 114.08 573.589 109.707 566.976 100.96C560.469 92.2133 558.282 81.9733 560.416 70.24C562.549 57.9733 567.936 48.2133 576.576 40.96C585.216 33.6 594.976 29.92 605.856 29.92C612.469 29.92 618.389 31.4133 623.616 34.4C628.842 37.3867 632.789 41.6 635.456 47.04L643.776 -7.62939e-06ZM578.816 92.16C583.402 97.8133 589.749 100.64 597.856 100.64C605.962 100.64 613.162 98.0267 619.456 92.8C625.749 87.4667 629.589 80.7467 630.976 72.64C632.576 63.5733 630.922 56.4267 626.016 51.2C621.216 45.9733 614.869 43.36 606.976 43.36C599.296 43.36 592.309 45.8667 586.016 50.88C579.722 55.7867 575.829 62.6133 574.336 71.36C572.842 79.5733 574.336 86.5067 578.816 92.16Z" fill="#7BCACC"/>
</svg>
