<svg width="330" height="58" viewBox="0 0 330 58" fill="none" xmlns="http://www.w3.org/2000/svg">
<path d="M41.7409 7.04H17.0209L13.8209 25.2H37.5809L36.3009 32.24H12.5409L8.38094 56H0.940938L10.7809 -3.8147e-06H43.0209L41.7409 7.04ZM54.4309 21.84C57.7909 17.3067 62.3509 15.12 68.1109 15.28L66.8309 22.56C63.4176 22.4533 60.2976 23.3867 57.4709 25.36C54.6976 27.28 52.9376 30.4267 52.1909 34.8V34.72L48.4309 56H41.4709L48.5109 16H55.4709L54.4309 21.84ZM85.5947 57.04C79.6747 57.04 74.928 54.9867 71.3547 50.88C67.7814 46.7733 66.5547 41.5733 67.6747 35.28C68.7947 29.0933 71.728 24.16 76.4747 20.48C81.2214 16.8 86.5014 14.96 92.3147 14.96C98.0214 14.96 102.608 17.0133 106.075 21.12C109.541 25.2267 110.741 30.3733 109.675 36.56C108.608 42.8533 105.755 47.84 101.115 51.52C96.4747 55.2 91.3014 57.04 85.5947 57.04ZM86.1547 50.24C90.048 50.24 93.5947 48.96 96.7947 46.4C100.048 43.84 102.048 40.32 102.795 35.84C103.541 31.52 102.741 28.1067 100.395 25.6C98.1014 23.04 95.0347 21.76 91.1947 21.76C87.408 21.8133 83.9147 23.0933 80.7147 25.6C77.5147 28.1067 75.488 31.5733 74.6347 36C73.888 40.48 74.6614 44 76.9547 46.56C79.3014 49.0667 82.368 50.2933 86.1547 50.24ZM141.238 14.96C145.931 14.96 149.478 16.4533 151.878 19.44C154.331 22.4267 155.131 26.4267 154.278 31.44L149.958 56H142.998L147.238 31.84C147.824 28.5333 147.424 26 146.038 24.24C144.651 22.48 142.358 21.6 139.158 21.6C135.744 21.6 132.758 22.6933 130.198 24.88C127.638 27.0133 125.984 30.32 125.238 34.8V34.72L121.478 56H114.518L121.558 16H128.518L127.558 21.28C131.024 17.0667 135.584 14.96 141.238 14.96ZM176.714 22.72L172.874 44.4C172.501 46.32 172.661 47.7067 173.354 48.56C174.047 49.4133 175.167 49.8667 176.714 49.92C178.314 49.92 180.287 49.8667 182.634 49.76L181.514 56C175.594 56.8 171.301 56.2933 168.634 54.48C165.967 52.6133 165.061 49.2533 165.914 44.4L169.674 22.72H161.754L163.034 16H170.874L172.474 6.88L179.834 4.8L177.834 16H188.554L187.354 22.72H176.714ZM212.921 14.96C218.948 14.96 223.561 17.04 226.761 21.2C230.014 25.3067 231.081 30.2667 229.961 36.08C229.854 36.9333 229.588 37.9733 229.161 39.2H195.721C195.721 42.7733 196.814 45.5467 199.001 47.52C201.241 49.4933 204.201 50.48 207.881 50.48C213.268 50.48 217.508 48.5067 220.601 44.56L225.801 48.32C223.774 51.0933 221.081 53.2533 217.721 54.8C214.414 56.2933 210.868 57.04 207.081 57.04C200.788 57.04 195.961 54.9333 192.601 50.72C189.241 46.5067 188.094 41.3333 189.161 35.2C190.174 29.3867 192.921 24.56 197.401 20.72C201.881 16.88 207.054 14.96 212.921 14.96ZM196.761 33.04H223.401C223.561 29.2533 222.628 26.4 220.601 24.48C218.574 22.5067 215.881 21.52 212.521 21.52C208.788 21.52 205.508 22.56 202.681 24.64C199.908 26.6667 197.934 29.4667 196.761 33.04ZM261.082 14.96C265.775 14.96 269.322 16.4533 271.722 19.44C274.175 22.4267 274.975 26.4267 274.122 31.44L269.802 56H262.842L267.082 31.84C267.668 28.5333 267.268 26 265.882 24.24C264.495 22.48 262.202 21.6 259.002 21.6C255.588 21.6 252.602 22.6933 250.042 24.88C247.482 27.0133 245.828 30.32 245.082 34.8V34.72L241.322 56H234.362L241.402 16H248.362L247.402 21.28C250.868 17.0667 255.428 14.96 261.082 14.96ZM322.638 -3.8147e-06H329.598L319.758 56H312.798L313.838 50.24C309.624 54.7733 304.264 57.04 297.758 57.04C292.051 57.04 287.544 54.8533 284.238 50.48C280.984 46.1067 279.891 40.9867 280.958 35.12C282.024 28.9867 284.718 24.1067 289.038 20.48C293.358 16.8 298.238 14.96 303.678 14.96C306.984 14.96 309.944 15.7067 312.558 17.2C315.171 18.6933 317.144 20.8 318.478 23.52L322.638 -3.8147e-06ZM290.158 46.08C292.451 48.9067 295.624 50.32 299.678 50.32C303.731 50.32 307.331 49.0133 310.478 46.4C313.624 43.7333 315.544 40.3733 316.238 36.32C317.038 31.7867 316.211 28.2133 313.758 25.6C311.358 22.9867 308.184 21.68 304.238 21.68C300.398 21.68 296.904 22.9333 293.758 25.44C290.611 27.8933 288.664 31.3067 287.918 35.68C287.171 39.7867 287.918 43.2533 290.158 46.08Z" fill="#7BCACC"/>
</svg>
