<svg xmlns="http://www.w3.org/2000/svg" xmlns:xlink="http://www.w3.org/1999/xlink" width="500" zoomAndPan="magnify" viewBox="0 0 375 374.999991" height="500" preserveAspectRatio="xMidYMid meet" version="1.0"><defs><g/></defs><g fill="#ffffff" fill-opacity="1"><g transform="translate(111.838737, 178.784182)"><g><path d="M 20.15625 -19.59375 L 17.71875 -19.59375 L 11.203125 -8.6875 L 4.671875 -19.59375 L 2.234375 -19.59375 L 2.234375 0 L 4.203125 0 L 4.203125 -16.625 L 11.0625 -5.15625 L 11.34375 -5.15625 L 18.203125 -16.625 L 18.203125 0 L 20.15625 0 Z M 20.15625 -19.59375 "/></g></g></g><g fill="#ffffff" fill-opacity="1"><g transform="translate(132.97567, 178.784182)"><g><path d="M 9.234375 0.34375 C 13.53125 0.34375 16.515625 -2.375 16.515625 -6.65625 L 16.515625 -19.59375 L 14.5625 -19.59375 L 14.5625 -6.65625 C 14.5625 -3.5625 12.625 -1.5625 9.234375 -1.5625 C 5.859375 -1.5625 3.921875 -3.5625 3.921875 -6.65625 L 3.921875 -19.59375 L 1.953125 -19.59375 L 1.953125 -6.65625 C 1.953125 -2.375 4.953125 0.34375 9.234375 0.34375 Z M 9.234375 0.34375 "/></g></g></g><g fill="#ffffff" fill-opacity="1"><g transform="translate(150.193139, 178.784182)"><g><path d="M 14.84375 -19.59375 L 14.84375 -11 L 4.203125 -11 L 4.203125 -19.59375 L 2.234375 -19.59375 L 2.234375 0 L 4.203125 0 L 4.203125 -9.15625 L 14.84375 -9.15625 L 14.84375 0 L 16.796875 0 L 16.796875 -19.59375 Z M 14.84375 -19.59375 "/></g></g></g><g fill="#ffffff" fill-opacity="1"><g transform="translate(167.970533, 178.784182)"><g><path d="M 15.28125 0 L 17.359375 0 L 9.828125 -19.59375 L 7.8125 -19.59375 L 0.28125 0 L 2.359375 0 L 4.171875 -4.8125 L 13.46875 -4.8125 Z M 4.875 -6.65625 L 8.8125 -17.171875 L 12.765625 -6.65625 Z M 4.875 -6.65625 "/></g></g></g><g fill="#ffffff" fill-opacity="1"><g transform="translate(184.34812, 178.784182)"><g><path d="M 20.15625 -19.59375 L 17.71875 -19.59375 L 11.203125 -8.6875 L 4.671875 -19.59375 L 2.234375 -19.59375 L 2.234375 0 L 4.203125 0 L 4.203125 -16.625 L 11.0625 -5.15625 L 11.34375 -5.15625 L 18.203125 -16.625 L 18.203125 0 L 20.15625 0 Z M 20.15625 -19.59375 "/></g></g></g><g fill="#ffffff" fill-opacity="1"><g transform="translate(205.485053, 178.784182)"><g><path d="M 20.15625 -19.59375 L 17.71875 -19.59375 L 11.203125 -8.6875 L 4.671875 -19.59375 L 2.234375 -19.59375 L 2.234375 0 L 4.203125 0 L 4.203125 -16.625 L 11.0625 -5.15625 L 11.34375 -5.15625 L 18.203125 -16.625 L 18.203125 0 L 20.15625 0 Z M 20.15625 -19.59375 "/></g></g></g><g fill="#ffffff" fill-opacity="1"><g transform="translate(226.621986, 178.784182)"><g><path d="M 15.28125 0 L 17.359375 0 L 9.828125 -19.59375 L 7.8125 -19.59375 L 0.28125 0 L 2.359375 0 L 4.171875 -4.8125 L 13.46875 -4.8125 Z M 4.875 -6.65625 L 8.8125 -17.171875 L 12.765625 -6.65625 Z M 4.875 -6.65625 "/></g></g></g><g fill="#ffffff" fill-opacity="1"><g transform="translate(242.999579, 178.784182)"><g><path d="M 9.796875 -19.59375 L 2.234375 -19.59375 L 2.234375 0 L 9.796875 0 C 15.203125 0 19.046875 -4.390625 19.046875 -9.796875 C 19.046875 -15.203125 15.203125 -19.59375 9.796875 -19.59375 Z M 9.796875 -1.84375 L 4.203125 -1.84375 L 4.203125 -17.75 L 9.796875 -17.75 C 14.171875 -17.75 17.140625 -14.203125 17.140625 -9.796875 C 17.140625 -5.40625 14.171875 -1.84375 9.796875 -1.84375 Z M 9.796875 -1.84375 "/></g></g></g><g fill="#ffffff" fill-opacity="1"><g transform="translate(112.048423, 211.665761)"><g><path d="M 8.4375 0 L 14.71875 0 L 19.953125 -18.484375 L 25.234375 0 L 31.515625 0 L 39.359375 -28 L 33.5625 -28 L 28.203125 -7.234375 L 22.3125 -28 L 17.59375 -28 L 11.765625 -7.234375 L 6.40625 -28 L 0.59375 -28 Z M 8.4375 0 "/></g></g></g><g fill="#ffffff" fill-opacity="1"><g transform="translate(150.80445, 211.665761)"><g><path d="M 20.59375 0 L 26.59375 0 L 16.765625 -28 L 9.921875 -28 L 0.125 0 L 6.078125 0 L 7.765625 -5.046875 L 18.921875 -5.046875 Z M 9.515625 -10.203125 L 13.359375 -21.640625 L 17.203125 -10.203125 Z M 9.515625 -10.203125 "/></g></g></g><g fill="#ffffff" fill-opacity="1"><g transform="translate(176.321792, 211.665761)"><g><path d="M 8.125 -5.28125 L 8.125 -28 L 2.59375 -28 L 2.59375 0 L 18.796875 0 L 18.796875 -5.28125 Z M 8.125 -5.28125 "/></g></g></g><g fill="#ffffff" fill-opacity="1"><g transform="translate(194.439877, 211.665761)"><g><path d="M 8.125 -5.28125 L 8.125 -11.5625 L 18.71875 -11.5625 L 18.71875 -16.765625 L 8.125 -16.765625 L 8.125 -22.71875 L 19.71875 -22.71875 L 19.71875 -28 L 2.59375 -28 L 2.59375 0 L 19.921875 0 L 19.921875 -5.28125 Z M 8.125 -5.28125 "/></g></g></g><g fill="#ffffff" fill-opacity="1"><g transform="translate(214.437768, 211.665761)"><g><path d="M 8.125 -5.28125 L 8.125 -11.5625 L 18.71875 -11.5625 L 18.71875 -16.765625 L 8.125 -16.765625 L 8.125 -22.71875 L 19.71875 -22.71875 L 19.71875 -28 L 2.59375 -28 L 2.59375 0 L 19.921875 0 L 19.921875 -5.28125 Z M 8.125 -5.28125 "/></g></g></g><g fill="#ffffff" fill-opacity="1"><g transform="translate(234.435653, 211.665761)"><g><path d="M 13.71875 -28 L 2.59375 -28 L 2.59375 0 L 13.71875 0 C 21.4375 0 27.203125 -6.125 27.203125 -14 C 27.203125 -21.875 21.4375 -28 13.71875 -28 Z M 13.71875 -5.28125 L 8.125 -5.28125 L 8.125 -22.71875 L 13.71875 -22.71875 C 18.5625 -22.71875 21.921875 -19.15625 21.921875 -14 C 21.921875 -8.84375 18.5625 -5.28125 13.71875 -5.28125 Z M 13.71875 -5.28125 "/></g></g></g></svg>